<?xml version="1.0" encoding="iso-8859-1"?>
<!-- Generator: Adobe Illustrator 19.0.0, SVG Export Plug-In . SVG Version: 6.00 Build 0)  -->
<svg version="1.1" id="Layer_1" xmlns="http://www.w3.org/2000/svg" xmlns:xlink="http://www.w3.org/1999/xlink" x="0px" y="0px"
	 viewBox="0 0 512 512" style="enable-background:new 0 0 512 512;" xml:space="preserve">
<path style="fill:#314E55;" d="M502.519,99.556h-279.37l-35.111-52.667c-1.759-2.639-4.718-4.222-7.889-4.222H9.481
	C4.245,42.667,0,46.907,0,52.148v56.889v37.926v274.991c0,26.13,21.241,47.38,47.352,47.38h417.296
	c26.111,0,47.352-21.25,47.352-47.38V146.963v-37.926C512,103.796,507.755,99.556,502.519,99.556z"/>
<polygon style="fill:#E9E7D1;" points="493.037,137.481 18.963,137.481 18.963,118.519 218.074,118.519 493.037,118.519 "/>
<polygon style="fill:#73C9C9;" points="18.963,61.63 175.074,61.63 200.357,99.556 18.963,99.556 "/>
<path style="fill:#DBCF56;" d="M493.037,421.954c0,15.667-12.736,28.417-28.389,28.417H47.352c-15.653,0-28.389-12.75-28.389-28.417
	V156.444h474.074V421.954z"/>
<path style="fill:#314E55;" d="M104.296,412.444h9.481h94.815h9.481h132.741h56.889c5.236,0,9.481-4.241,9.481-9.482V203.852
	c0-5.241-4.245-9.481-9.481-9.481H104.296c-5.236,0-9.481,4.241-9.481,9.481v199.111C94.815,408.204,99.06,412.444,104.296,412.444z
	"/>
<g>
	<polygon style="fill:#D8D8D8;" points="128.556,393.481 165.926,311.945 203.296,393.481 	"/>
	<polygon style="fill:#D8D8D8;" points="230.477,393.481 279.704,340.972 328.931,393.481 	"/>
</g>
<path style="fill:#73C9C9;" d="M398.222,213.333v180.148h-43.303L286.62,320.63c-3.583-3.833-10.25-3.833-13.833,0l-55.086,58.758
	l-43.155-94.156c-1.546-3.37-4.912-5.528-8.62-5.528c-3.708,0-7.074,2.158-8.62,5.528l-43.528,94.97V213.333H398.222z"/>
<path style="fill:#314E55;" d="M327.111,298.667c18.296,0,33.185-14.889,33.185-33.185s-14.889-33.185-33.185-33.185
	s-33.185,14.889-33.185,33.185S308.815,298.667,327.111,298.667z"/>
<circle style="fill:#DBCF56;" cx="327.111" cy="265.481" r="14.222"/>
<g>
</g>
<g>
</g>
<g>
</g>
<g>
</g>
<g>
</g>
<g>
</g>
<g>
</g>
<g>
</g>
<g>
</g>
<g>
</g>
<g>
</g>
<g>
</g>
<g>
</g>
<g>
</g>
<g>
</g>
</svg>
