<?xml version="1.0" standalone="no"?>
<!DOCTYPE svg PUBLIC "-//W3C//DTD SVG 20010904//EN"
 "http://www.w3.org/TR/2001/REC-SVG-20010904/DTD/svg10.dtd">
<svg version="1.0" xmlns="http://www.w3.org/2000/svg"
 width="700.000000pt" height="700.000000pt" viewBox="0 0 700.000000 700.000000"
 preserveAspectRatio="xMidYMid meet">
<metadata>
Created by potrace 1.11, written by Peter Selinger 2001-2013
</metadata>
<g transform="translate(0.000000,700.000000) scale(0.100000,-0.100000)"
fill="#000000" stroke="none">
<path d="M899 6996 c-2 -2 -24 -7 -49 -10 -225 -30 -439 -153 -626 -359 -64
-71 -152 -244 -184 -359 -12 -43 -24 -88 -28 -100 -4 -13 -7 -1200 -8 -2638
-2 -2239 0 -2627 12 -2695 64 -354 302 -640 642 -771 56 -22 88 -30 187 -52
17 -3 1202 -7 2635 -9 2845 -2 2665 -5 2840 54 355 121 625 454 668 823 3 30
6 1221 6 2645 1 2906 7 2657 -73 2851 -31 76 -108 208 -146 251 -157 178 -322
283 -535 342 l-95 26 -2621 3 c-1441 1 -2622 0 -2625 -2z m3186 -1685 c50 -22
91 -62 143 -141 21 -30 74 -109 118 -175 92 -136 107 -172 100 -244 -8 -82
-51 -143 -129 -183 -72 -36 -186 -20 -245 35 -29 26 -182 244 -182 257 0 6
-19 10 -42 11 -51 1 -661 1 -699 0 -19 -1 -36 -13 -58 -43 -160 -215 -154
-209 -219 -239 -76 -36 -185 -17 -250 44 -56 52 -84 159 -60 231 17 49 257
382 299 414 65 51 47 49 632 51 520 1 551 0 592 -18z m-2681 -371 c22 -10 50
-27 62 -37 18 -16 79 -113 147 -233 10 -19 45 -80 77 -135 32 -55 67 -116 78
-135 10 -19 43 -75 72 -125 29 -49 62 -106 72 -125 38 -67 67 -117 302 -523
130 -224 236 -412 236 -417 0 -6 4 -10 8 -10 4 0 13 -12 19 -27 7 -16 18 -37
25 -48 7 -11 14 -22 16 -25 2 -2 41 36 89 85 225 236 501 522 623 646 145 147
172 164 267 162 89 -2 91 -4 544 -458 238 -239 436 -435 439 -435 3 0 48 76
101 168 53 92 198 345 324 562 125 217 237 411 249 431 229 400 347 598 373
629 57 66 154 90 243 60 63 -21 114 -69 137 -129 17 -43 18 -127 17 -1351 -1
-718 -4 -1327 -8 -1355 -14 -101 -70 -249 -109 -290 -7 -7 -28 -31 -47 -55
-73 -88 -217 -165 -349 -185 -24 -4 -886 -7 -1915 -7 -1443 0 -1886 3 -1932
12 -238 49 -422 233 -470 471 -4 19 -8 637 -9 1374 l-1 1340 22 53 c27 62 62
95 129 121 57 22 110 19 169 -9z"/>
<path d="M1530 3002 c0 -948 -3 -907 61 -953 l34 -24 1867 0 1867 0 28 21 c15
11 36 36 46 56 16 32 17 92 15 899 l-3 864 -164 -285 c-90 -157 -172 -298
-181 -315 -288 -503 -405 -697 -433 -718 -72 -55 -167 -66 -249 -29 -31 14
-162 139 -478 456 -239 240 -436 441 -438 446 -8 23 -34 6 -110 -72 -85 -88
-120 -124 -467 -483 -349 -361 -341 -353 -388 -366 -96 -26 -180 -5 -241 61
-20 21 -36 41 -36 44 0 2 -19 37 -43 78 -24 40 -88 150 -142 243 -54 94 -132
228 -173 299 -41 72 -83 145 -93 164 -11 18 -60 103 -110 188 -49 85 -102 176
-116 202 -14 26 -32 56 -39 67 -12 16 -14 -115 -14 -843z"/>
</g>
</svg>
